<?xml version="1.0" encoding="utf-8"?>
<!-- Generator: Adobe Illustrator 26.5.1, SVG Export Plug-In . SVG Version: 6.00 Build 0)  -->
<svg version="1.1" id="Layer_1" xmlns="http://www.w3.org/2000/svg" xmlns:xlink="http://www.w3.org/1999/xlink" x="0px" y="0px"
	 viewBox="0 0 78.8 8.6" style="enable-background:new 0 0 78.8 8.6;" xml:space="preserve">
<style type="text/css">
	.st0{fill:#FFFFFF;}
</style>
<g>
	<path class="st0" d="M3,8.6c-2,0-3-0.8-3-2.4V2.4C0,0.8,0.9,0,3,0h3c0.3,0,0.4,0.1,0.4,0.4v1.5c0,0.3-0.1,0.4-0.4,0.4H3.5
		C3,2.3,2.7,2.5,2.7,2.9v2.9c0,0.4,0.2,0.6,0.6,0.6h1.2V4.5c0-0.3,0.1-0.4,0.4-0.4h1.9c0.3,0,0.4,0.1,0.4,0.4v3.7
		c0,0.3-0.1,0.4-0.4,0.4H3z"/>
	<path class="st0" d="M9.1,8.6c-0.3,0-0.4-0.1-0.4-0.4V0.4C8.6,0.1,8.8,0,9.1,0h5.6c0.3,0,0.4,0.1,0.4,0.4v1.4
		c0,0.3-0.1,0.4-0.4,0.4h-3.3v0.9h2.3c0.3,0,0.4,0.1,0.4,0.4v1.3c0,0.3-0.1,0.4-0.4,0.4h-2.3v1h3.3c0.3,0,0.4,0.1,0.4,0.4v1.4
		c0,0.3-0.1,0.4-0.4,0.4H9.1z"/>
	<path class="st0" d="M16.9,8.6c-0.3,0-0.4-0.1-0.4-0.4V0.4c0-0.3,0.1-0.4,0.4-0.4h1.2c0.3,0,0.5,0.1,0.7,0.3L21.2,3V0.4
		c0-0.3,0.1-0.4,0.4-0.4h1.8c0.3,0,0.4,0.1,0.4,0.4v7.8c0,0.3-0.1,0.4-0.4,0.4h-1.8c-0.3,0-0.4-0.1-0.4-0.4V6.7l-2.1-2.5v4
		c0,0.3-0.1,0.4-0.4,0.4H16.9z"/>
	<path class="st0" d="M25.7,8.6c-0.3,0-0.4-0.1-0.4-0.4V6.8c0-0.3,0.1-0.4,0.4-0.4H29c0.2,0,0.3-0.2,0.3-0.3c0-0.3-0.1-0.4-0.3-0.4
		l-1.8-0.3c-1.1-0.2-1.9-0.6-1.9-2V2.1c0-1.4,0.9-2.1,2.5-2.1h3.4c0.3,0,0.4,0.1,0.4,0.4v1.4c0,0.3-0.1,0.4-0.4,0.4h-2.8
		c-0.2,0-0.3,0.1-0.3,0.4S28.1,3,28.3,3l1.8,0.2c1.1,0.2,1.9,0.6,1.9,2v1.3c0,1.4-0.9,2.1-2.5,2.1H25.7z"/>
	<path class="st0" d="M33.7,8.6c-0.3,0-0.4-0.1-0.4-0.4V0.4c0-0.3,0.1-0.4,0.4-0.4h1.9C35.9,0,36,0.1,36,0.4V3h2V0.4
		C38,0.1,38.2,0,38.5,0h1.9c0.3,0,0.4,0.1,0.4,0.4v7.8c0,0.3-0.1,0.4-0.4,0.4h-1.9c-0.3,0-0.4-0.1-0.4-0.4V5.5h-2v2.7
		c0,0.3-0.1,0.4-0.4,0.4H33.7z"/>
	<path class="st0" d="M42.2,8.2V6.8c0-0.3,0.1-0.4,0.4-0.4h1.2v-4h-1.2c-0.3,0-0.4-0.1-0.4-0.4V0.4c0-0.3,0.1-0.4,0.4-0.4h5.1
		c0.3,0,0.4,0.1,0.4,0.4v1.5c0,0.3-0.1,0.4-0.4,0.4h-1.2v4h1.2c0.3,0,0.4,0.1,0.4,0.4v1.4c0,0.3-0.1,0.4-0.4,0.4h-5.1
		C42.4,8.6,42.2,8.5,42.2,8.2z"/>
	<path class="st0" d="M50.1,8.6c-0.3,0-0.4-0.1-0.4-0.4V0.4c0-0.3,0.1-0.4,0.4-0.4h1.2c0.3,0,0.5,0.1,0.7,0.3L54.4,3V0.4
		c0-0.3,0.1-0.4,0.4-0.4h1.8c0.3,0,0.4,0.1,0.4,0.4v7.8c0,0.3-0.1,0.4-0.4,0.4h-1.8c-0.3,0-0.4-0.1-0.4-0.4V6.7l-2.1-2.5v4
		c0,0.3-0.1,0.4-0.4,0.4H50.1z"/>
	<path class="st0" d="M59,8.6c-0.3,0-0.4-0.1-0.4-0.4V5.8c0-0.3,0.1-0.4,0.4-0.4h2.4c0.3,0,0.4,0.1,0.4,0.4v2.4
		c0,0.3-0.1,0.4-0.4,0.4H59z"/>
	<path class="st0" d="M66.1,8.6c-2,0-3-0.8-3-2.4V2.4c0-1.7,0.9-2.4,3-2.4h3c0.3,0,0.4,0.1,0.4,0.4v1.5c0,0.3-0.1,0.4-0.4,0.4h-2.5
		c-0.5,0-0.7,0.2-0.7,0.6v2.9c0,0.4,0.2,0.6,0.6,0.6h1.2V4.5c0-0.3,0.1-0.4,0.4-0.4h1.9c0.3,0,0.4,0.1,0.4,0.4v3.7
		c0,0.3-0.1,0.4-0.4,0.4H66.1z"/>
	<path class="st0" d="M74.6,8.6c-2,0-3-0.8-3-2.4V2.4c0-1.7,0.9-2.4,3-2.4h3c0.3,0,0.4,0.1,0.4,0.4v1.5c0,0.3-0.1,0.4-0.4,0.4h-2.5
		c-0.5,0-0.7,0.2-0.7,0.6v2.9c0,0.4,0.2,0.6,0.6,0.6h1.2V4.5c0-0.3,0.1-0.4,0.4-0.4h1.9c0.3,0,0.4,0.1,0.4,0.4v3.7
		c0,0.3-0.1,0.4-0.4,0.4H74.6z"/>
</g>
</svg>
